<svg xmlns="http://www.w3.org/2000/svg" enable-background="new 0 0 959 746" viewBox="0 0 959 746"><switch><g><path fill="#6930FF66" d="M862.2,258.4C834.5,173.6,742.7,146,671.4,108.7C543.1,41.4,365.6-3.3,232.1,75.7
			C72.3,170.3,101.4,385.1,152,534.1c11.5,33.9,12.9,70.5,26.1,103.7c1.2,3.1,2.6,6.1,4,9.2h391.5c11.6-7.7,23.7-14.6,36.9-20.1
			c67.7-28.3,143.2-50.6,196.4-110.4C867.3,448.5,890.6,345.4,862.2,258.4z" opacity=".58"/><path fill="#363F5F" d="M81.8,653.2h557.6c0,0-19.1-105.2-170.4-76.5c0,0-50-91-143.6-57c0,0-88.4-34.3-140.6,29
						C184.7,548.7,95,547.8,81.8,653.2z"/><path fill="#363F5F" d="M302.3,653.2H42.2c1.4-11.4,4.8-20.2,9.1-26.9c7.2-11.1,17-16.6,25-19.3c7.9-2.6,13.9-2.6,13.9-2.6
						c24.4-29.6,65.6-13.5,65.6-13.5c43.7-15.8,67,26.6,67,26.6C293.4,604.1,302.3,653.2,302.3,653.2z"/><path fill="#6933FF" d="M858.2,653.2H300.7c0,0,19.1-105.2,170.4-76.5c0,0,50-91,143.6-57c0,0,88.4-34.3,140.6,29
					C755.3,548.7,845,547.8,858.2,653.2z"/><path fill="#363F5F" d="M649.7,653h260.1c-1.4-11.4-4.8-20.2-9.1-26.9c-7.2-11.1-17-16.6-25-19.3c-7.9-2.6-13.9-2.6-13.9-2.6
					c-24.4-29.6-65.6-13.5-65.6-13.5c-43.7-15.8-67,26.6-67,26.6C658.6,603.9,649.7,653,649.7,653z"/><path fill="#d3d3d3" d="M610.6,166h-8.7c8.2,0,14.8,6.7,14.8,14.9l-2.1,402.9c0,5.5-4.3,10-9.6,10.4l7.8,0c5.8,0,10.5-4.6,10.6-10.4
				l2.1-402.9C625.4,172.7,618.8,166,610.6,166z"/><path fill="#f7f7f7" d="M614.6,583.8l2.1-402.9c0-8.2-6.6-14.9-14.8-14.9l-257.8-1.4l-7.8,0c-8.2,0-14.9,6.6-14.9,14.8l-2.1,402.9
				c0,5.8,4.6,12,10.5,12H604c0.3,0,0.6,0,0.9,0C610.3,593.8,614.5,589.3,614.6,583.8z"/><rect width="226.5" height="59" x="354.1" y="204.1" fill="#d3d3d3" transform="matrix(-1 -.00533 .00533 -1 933.412 469.707)"/><rect width="57.5" height="50.7" x="352.7" y="394.5" fill="#d3d3d3" transform="matrix(-1 -.00533 .00533 -1 760.7 841.795)"/><rect width="57.5" height="50.7" x="437.4" y="395" fill="#d3d3d3" transform="matrix(-1 -.00533 .00533 -1 930.1 843.15)"/><rect width="57.5" height="50.7" x="521.7" y="478.7" fill="#d3d3d3" transform="matrix(-1 -.00533 .00533 -1 1098.168 1011.083)"/><rect width="57.5" height="50.7" x="352.3" y="477.8" fill="#d3d3d3" transform="matrix(-1 -.00533 .00533 -1 759.368 1008.373)"/><rect width="57.5" height="50.7" x="437" y="478.3" fill="#d3d3d3" transform="matrix(-1 -.00533 .00533 -1 928.768 1009.728)"/><path fill="#6933FF" d="M570.6,364.3h-41c-3.9,0-7-3.2-7-7v-38.4c0-3.9,3.2-7,7-7h41c3.9,0,7,3.2,7,7v38.4
					C577.6,361.2,574.5,364.3,570.6,364.3z"/><rect width="4.1" height="22.4" x="548.1" y="326.9" fill="#fff"/><rect width="23.5" height="3.9" x="538.4" y="336.2" fill="#fff"/><path fill="#363F5F" d="M401.9,362.8h-41c-3.9,0-7-3.2-7-7v-38.4c0-3.9,3.2-7,7-7h41c3.9,0,7,3.2,7,7v38.4
					C408.9,359.6,405.7,362.8,401.9,362.8z"/><rect width="23.5" height="3.9" x="369.6" y="334.6" fill="#fff"/><path fill="#33CC95" d="M486.3,362.6h-41c-3.9,0-7-3.2-7-7v-38.4c0-3.9,3.2-7,7-7h41c3.9,0,7,3.2,7,7v38.4
					C493.3,359.4,490.2,362.6,486.3,362.6z"/><polygon fill="#fff" points="459 345.7 456.1 342.9 472.7 327.1 475.6 329.8"/><polygon fill="#fff" points="472.7 345.7 456.1 329.8 459 327.1 475.6 342.9"/><path fill="#363F5F" d="M570.9,447h-41c-3.9,0-7-3.2-7-7v-38.4c0-3.9,3.2-7,7-7h41c3.9,0,7,3.2,7,7V440
					C577.9,443.9,574.8,447,570.9,447z"/><rect width="23.5" height="3.9" x="538.7" y="418.9" fill="#fff"/><path fill="#fff" d="M550.5 415.1c-.5 0-.9-.1-1.4-.2-1.4-.4-2.6-1.2-3.3-2.4-.7-1.2-.9-2.6-.5-3.9.4-1.3 1.3-2.5 2.5-3.2 1.3-.7 2.7-.9 4.1-.5l0 0c1.4.4 2.6 1.2 3.3 2.4.7 1.2.9 2.6.5 3.9-.4 1.3-1.3 2.5-2.5 3.2C552.3 414.8 551.4 415.1 550.5 415.1zM550.4 408.6c-.2 0-.5.1-.7.2-.3.2-.5.4-.6.8-.1.3 0 .7.1 1 .2.3.5.5.8.6.3.1.7 0 1-.1.3-.2.5-.4.6-.8.1-.3 0-.7-.1-1-.2-.3-.5-.5-.8-.6h0C550.7 408.6 550.6 408.6 550.4 408.6zM550.4 436.9c-3 0-5.4-2.3-5.4-5.2 0-2.9 2.4-5.2 5.4-5.2 3 0 5.4 2.3 5.4 5.2C555.9 434.5 553.4 436.9 550.4 436.9zM550.4 430.4c-.7 0-1.3.6-1.3 1.3s.6 1.3 1.3 1.3c.7 0 1.3-.6 1.3-1.3S551.2 430.4 550.4 430.4z"/><rect width="16.2" height="49.8" x="676.2" y="355.4" fill="#33CC95"/><rect width="18.2" height="69" x="711" y="336.2" fill="#33CC95"/><rect width="18.1" height="89" x="745.8" y="316.2" fill="#33CC95"/><rect width="15.8" height="114.2" x="780.6" y="291" fill="#6933FF"/><path fill="#6933FF" d="M215.7,275.4h-68.4c-0.6,0-1.1-0.5-1.1-1.1v-40.4c0-0.6,0.5-1.1,1.1-1.1h68.4c0.6,0,1.1,0.5,1.1,1.1v40.4
						C216.8,274.9,216.3,275.4,215.7,275.4z"/><rect width="40.5" height="4.2" x="159.3" y="245.9" fill="#fff"/><rect width="40.5" height="4.2" x="159.3" y="256.3" fill="#fff"/><path fill="#33CC95" d="M150.9,358.2H73.2c-0.7,0-1.2-0.5-1.2-1.2v-45.8c0-0.7,0.5-1.2,1.2-1.2h77.6c0.7,0,1.2,0.5,1.2,1.2V357
						C152.1,357.7,151.5,358.2,150.9,358.2z"/><rect width="45.9" height="4.7" x="86.8" y="324.8" fill="#fff"/><rect width="45.9" height="4.7" x="86.8" y="336.6" fill="#fff"/><path fill="#363F5F" d="M217.8,443.4h-73.4c-0.7,0-1.2-0.5-1.2-1.2v-45.8c0-0.7,0.5-1.2,1.2-1.2h73.4c0.7,0,1.2,0.5,1.2,1.2v45.8
						C219,442.9,218.5,443.4,217.8,443.4z"/><rect width="43.5" height="4.7" x="157.2" y="410" fill="#fff"/><rect width="43.5" height="4.7" x="157.2" y="421.8" fill="#fff"/><path fill="#6933FF" d="M416.1,336l-47.7,32.1l-5-7.5l-0.8,31l0,0c1.2,2.1,3.9,2.7,5.8,1.2l50.5-38.7L416.1,336z"/><rect width="66.5" height="87" x="415.5" y="389.1" fill="#33CC95" transform="rotate(20.39 448.826 432.64)"/><rect width="66.5" height="87" x="420.3" y="390.9" fill="#6933FF" transform="rotate(30 453.575 434.342)"/><path fill="#363F5F" d="M331.6,706.2h-39.1v-16.7h23.6c8.6,0,15.5,6.9,15.5,15.5V706.2z"/><rect width="17.6" height="21.3" x="325" y="286.4" fill="#ffe3ca"/><path fill="#fcd2b1" d="M345.5,295.8c-0.1,0-0.2,0-0.2,0c-0.9,0-1.8,0-2.7-0.1v5.4c0,0-8.9-4.8-11.9-8.3c-1-1.1,2.7-0.9,2.2-2
				l9.7,3.9L345.5,295.8z"/><path fill="#ffe3ca" d="M360.1,273.6l-3.3,0.6c1,12.1,0.6,21.6-11.3,21.7c-0.1,0-0.2,0-0.2,0c-0.9,0-1.8,0-2.7-0.1
			c-2.3-0.2-4.8-0.7-7.4-1.5c-2.7-0.7-5.4-1.8-8.1-3c-2-0.9-3.9-1.9-5.7-3c-9.3-5.5-16.9-13.5-16.9-22.4c0-16.5,12-29.9,26.7-29.9
			c11,0,20.5,7.5,24.6,18.1c1.4,3.6,2.2,7.6,2.2,11.8l3.2,5.4C361.7,272.2,361.1,273.4,360.1,273.6z"/><path fill="#6933FF" d="M364.4,323.1L360.9,459h-84.3c0,0-3.9-148.5-2.3-153.1c21.1-0.2,37.4,0,54.7,0c1.2,0,2.4,0,3.6,0
			c5.5,0,11.2,0,17.1,0C358.8,306,365.8,314.1,364.4,323.1z"/><path fill="#6933FF" d="M408.9,417l-48.7-21.3c-2.8-1.2-4.5-4.2-4.1-7.2l8.6-68.4c-1.4-8.7-8.5-14.4-15-14
					c-7.6,0.5-15,9.7-12.4,20.3c-2.2,25.5-4.4,51-6.5,76.5c-0.3,3.7,2,7.1,5.5,8.3l66.3,21.6L408.9,417z"/><path fill="#363F5F" d="M266.9,297.1c3.2-8.2,9.7-14.7,17.9-18c5.6-2.1,9.3-5,11.8-7.8c4.2-4.7,4.1-6.6,4.1-6.6s0.5-4.8,0.5-5.9
			c0-18.6,13.5-33.7,30.1-33.7c2,0,12.5,0,13.1,0.1c7.9,0.9,14,7.5,14,15.6c0,0.3,0,0.7,0,1c-0.5,8.2-7.4,14.7-15.7,14.7
			c-0.7,0-1.4-0.1-2.1-0.1c-0.5,10.6-3.7,19.9-8.4,25.9c-0.2,0.3-0.4,0.6-0.7,0.8h0c0,0-0.1,0.1-0.1,0.1c-0.3,0.3-0.6,0.6-0.9,1
			c-3.6,5-2.3,17.2-2.3,17.2l0,0c0.4,1.5,0.6,3,0.8,4.5c0.1,1,0.1,2,0.1,3c0,11.9-6.5,22.3-16.1,27.9c0.1,1.4,0.2,2.8,0.2,4.3
			c0,24.4-19.7,44.1-44.1,44.1c-24.4,0-44.1-19.7-44.1-44.1C225,317.5,243.6,298.2,266.9,297.1z"/><polygon fill="#ffe3ca" points="314 689.5 292.4 689.5 291.7 510.3 325 510.3"/><path fill="#363F5F" d="M367.7,706.2h-39.1v-16.7h23.6c8.6,0,15.5,6.9,15.5,15.5V706.2z"/><polygon fill="#ffe3ca" points="349.9 689.5 328.6 689.5 325 510.3 353.1 510.3"/><polygon fill="#33CC95" points="360.9 459 360.9 565.3 264.6 565.3 276.6 459"/><path fill="#ffe3ca" d="M408.9 417c0 0 29.4 2.4 30.1 11.1.6 8.7-11.9 13.5-36.5 4.6L408.9 417zM453.9 326.7l-24.8 3.2 3.4-4.2c4.1-3.5 2.5-6.5 2.5-6.5l-10.3 5.7-8.6 11 2.2 13.8 0 0 .7 4.3c5-.3 8.8-1.6 11.6-3.4.4.1.8.2 1.3.1 5.9-1 7.2-7.1 7.1-14.9 0 0 0-.1 0-.3 0-1 0-1.6 0-1.6l10.5-2.3C458.3 330 454.2 326.7 453.9 326.7z"/><g><polygon fill="#dd9786" points="410.8 417.2 420.3 413.9 418.6 418.3"/></g><g><path fill="#999" d="M426.3 248.8l5.8-27.2-7.6 1.8 1-4.7 13.3-3.1-7 33.1H426.3zM457.4 224.3c0-1.3-.4-2.3-1.2-3.1s-2-1.1-3.5-1.1c-1.5 0-3 .3-4.5.9-1.5.6-2.8 1.4-4 2.3l1.2-5.4c2.4-1.6 5.3-2.3 8.7-2.3 2.8 0 4.9.7 6.5 2.1s2.4 3.2 2.4 5.6c0 1.8-.3 3.3-.9 4.7-.6 1.4-1.5 2.7-2.7 3.9-1.2 1.2-3.4 2.8-6.4 4.7-3 1.9-5.1 3.3-6.2 4.4-1.1 1.1-1.8 2.1-2 3.2h14.4l-1 4.6h-20.4l.4-2c.3-1.7.9-3.3 1.8-4.6.8-1.4 2-2.7 3.3-3.9 1.4-1.3 3.5-2.8 6.4-4.6 2-1.3 3.5-2.4 4.6-3.3 1.1-1 1.9-1.9 2.3-2.8S457.4 225.5 457.4 224.3zM484.6 223.2c0 2.4-.8 4.3-2.3 5.9-1.5 1.6-3.6 2.6-6.3 3v.1c1.9.3 3.4 1.1 4.5 2.4 1.1 1.3 1.6 2.8 1.6 4.7 0 2-.5 3.8-1.5 5.3-1 1.5-2.5 2.7-4.4 3.6-1.9.8-4.3 1.3-7 1.3-1.5 0-3-.2-4.4-.5-1.5-.3-2.8-.8-4.1-1.4l1-4.7c1 .6 2.2 1.2 3.6 1.6 1.4.4 2.7.6 3.9.6 2.4 0 4.2-.5 5.5-1.5 1.3-1 2-2.4 2-4.3 0-1.5-.6-2.8-1.8-3.7-1.2-.9-3-1.4-5.4-1.4h-2.6l.9-4.3h3.1c2.6 0 4.6-.5 6.1-1.5 1.5-1 2.2-2.4 2.2-4.2 0-1.3-.4-2.3-1.3-3.1-.9-.7-2.1-1.1-3.7-1.1-2.4 0-4.8.6-7.1 1.8l1-4.8c2.4-.9 5-1.3 7.6-1.3 2.8 0 4.9.7 6.6 2S484.6 220.9 484.6 223.2zM490.6 246.2c0 .9-.3 1.7-1 2.3-.7.6-1.5.9-2.4.9-.9 0-1.7-.3-2.4-.9-.6-.6-.9-1.3-.9-2.2 0-.9.3-1.7 1-2.3s1.5-.9 2.5-.9c.9 0 1.7.3 2.3.9S490.6 245.3 490.6 246.2zM520 225.6c0 4.4-.7 8.4-2 12.2-1.3 3.8-3.1 6.7-5.4 8.6-2.2 1.9-4.7 2.9-7.6 2.9-2.8 0-4.9-1-6.6-2.9s-2.4-4.6-2.4-8.1c0-4 .7-7.8 2-11.4 1.3-3.6 3.2-6.4 5.4-8.4 2.3-2 4.9-2.9 7.7-2.9 2.7 0 4.8.9 6.4 2.6C519.2 220.1 520 222.5 520 225.6zM514.6 225.7c0-1.8-.3-3.3-1-4.2-.6-1-1.6-1.5-2.7-1.5-1.6 0-3.1.8-4.4 2.4s-2.5 4.1-3.5 7.4c-1 3.3-1.5 6.3-1.5 9 0 1.9.3 3.4 1 4.5.7 1.1 1.7 1.6 3 1.6 1.7 0 3.2-.9 4.5-2.7 1.3-1.8 2.3-4.3 3.2-7.5S514.6 228.5 514.6 225.7zM545.6 225.6c0 4.4-.7 8.4-2 12.2-1.3 3.8-3.1 6.7-5.4 8.6-2.2 1.9-4.7 2.9-7.6 2.9-2.8 0-4.9-1-6.6-2.9s-2.4-4.6-2.4-8.1c0-4 .7-7.8 2-11.4 1.3-3.6 3.2-6.4 5.4-8.4 2.3-2 4.9-2.9 7.7-2.9 2.7 0 4.8.9 6.4 2.6C544.9 220.1 545.6 222.5 545.6 225.6zM540.2 225.7c0-1.8-.3-3.3-1-4.2-.6-1-1.6-1.5-2.7-1.5-1.6 0-3.1.8-4.4 2.4s-2.5 4.1-3.5 7.4c-1 3.3-1.5 6.3-1.5 9 0 1.9.3 3.4 1 4.5.7 1.1 1.7 1.6 3 1.6 1.7 0 3.2-.9 4.5-2.7 1.3-1.8 2.3-4.3 3.2-7.5S540.2 228.5 540.2 225.7z"/></g></g></switch></svg>